# xmcd
#
# Track frame offsets:
#	182
#	14505
#	27910
#	42670
#	62077
#	81317
#	97010
#	116107
#	131790
#	145417
#	159192
#	176207
#	195105
#	205495
#	219557
#	238370
#
# Disc length: 3391 seconds
#
# Revision: 0
# Processed by: cddbd v1.5.2PL0 Copyright (c) Steve Scherf et al.
# Submitted via: dBpowerAMP V4.0
#
DISCID=f40d3d10
DTITLE=Roger Whittaker - Annie's Song
DYEAR=1900
DGENRE=Country
TTITLE0=Annie's Song
TTITLE1=Vaya Con Dios
TTITLE2=Evergreen
TTITLE3=Leaving On A Jet Plane
TTITLE4=For The Good Times
TTITLE5=Stardust
TTITLE6=Memory
TTITLE7=Calypso
TTITLE8=Making Believe
TTITLE9=Scarlet Ribbons (For Her Hair)
TTITLE10=Amazing Grace
TTITLE11=So Far So Good
TTITLE12=Red Roses For  A Blue Lady
TTITLE13=There Goes My Everything
TTITLE14=Just Across The Rio Grande
TTITLE15=Summer Days
EXTD=BMG Music
EXTT0=
EXTT1=
EXTT2=
EXTT3=
EXTT4=
EXTT5=
EXTT6=
EXTT7=
EXTT8=
EXTT9=
EXTT10=
EXTT11=
EXTT12=
EXTT13=
EXTT14=
EXTT15=
PLAYORDER=
